<?xml version="1.0" encoding="UTF-8"?>
<svg width="300" height="450" viewBox="0 0 300 450" fill="none" xmlns="http://www.w3.org/2000/svg">
    <rect width="300" height="450" fill="#f0f0f0"/>
    <path d="M150 160C138.954 160 130 168.954 130 180C130 191.046 138.954 200 150 200C161.046 200 170 191.046 170 180C170 168.954 161.046 160 150 160ZM150 190C144.477 190 140 185.523 140 180C140 174.477 144.477 170 150 170C155.523 170 160 174.477 160 180C160 185.523 155.523 190 150 190Z" fill="#666"/>
    <path d="M180 220H120C115.582 220 112 223.582 112 228V268C112 272.418 115.582 276 120 276H180C184.418 276 188 272.418 188 268V228C188 223.582 184.418 220 180 220ZM178 266H122V230H178V266Z" fill="#666"/>
    <text x="150" y="320" text-anchor="middle" font-family="Arial" font-size="16" fill="#666">No Image Available</text>
</svg>
